G04*
G04 #@! TF.GenerationSoftware,Altium Limited,Altium Designer,24.4.1 (13)*
G04*
G04 Layer_Physical_Order=2*
G04 Layer_Color=16711680*
%FSLAX44Y44*%
%MOMM*%
G71*
G04*
G04 #@! TF.SameCoordinates,8D63ED92-734E-4D8B-B0F7-BFCC1496BCEB*
G04*
G04*
G04 #@! TF.FilePolarity,Positive*
G04*
G01*
G75*
%ADD14C,0.4000*%
%ADD15C,3.5000*%
%ADD16C,2.0000*%
%ADD17C,4.6500*%
%ADD18C,1.6000*%
%ADD19C,2.6000*%
%ADD20C,1.8000*%
%ADD21C,2.5000*%
%ADD22C,0.8000*%
%ADD23C,1.5000*%
G36*
X366087Y881954D02*
X368694Y879347D01*
X370028Y878577D01*
Y865985D01*
X367632Y864602D01*
X365398Y862368D01*
X364707Y861172D01*
X360293D01*
X359602Y862368D01*
X357368Y864602D01*
X355913Y865443D01*
Y878035D01*
X358186Y879347D01*
X360793Y881954D01*
X361131Y882539D01*
X365749D01*
X366087Y881954D01*
D02*
G37*
G36*
X700000Y1000000D02*
Y905000D01*
X800000D01*
Y95000D01*
X700000D01*
Y0D01*
X100000D01*
Y50959D01*
X103695Y52490D01*
X139011Y17174D01*
X140996Y15848D01*
X143337Y15383D01*
X196500D01*
X198841Y15848D01*
X200826Y17174D01*
X208489Y24838D01*
X210187Y24134D01*
X213375Y23500D01*
X216625D01*
X219813Y24134D01*
X222816Y25378D01*
X224205Y26306D01*
X229837Y20674D01*
X231822Y19348D01*
X234163Y18882D01*
X478400D01*
X480741Y19348D01*
X482726Y20674D01*
X493792Y31741D01*
X496557Y31000D01*
X500243D01*
X503804Y31954D01*
X506996Y33797D01*
X508573Y35374D01*
X511100Y36021D01*
X513627Y35374D01*
X515204Y33797D01*
X518396Y31954D01*
X521957Y31000D01*
X525643D01*
X529204Y31954D01*
X532396Y33797D01*
X533973Y35374D01*
X536500Y36021D01*
X539027Y35374D01*
X540604Y33797D01*
X543796Y31954D01*
X547357Y31000D01*
X551043D01*
X554604Y31954D01*
X557796Y33797D01*
X559373Y35374D01*
X561900Y36021D01*
X564427Y35374D01*
X566004Y33797D01*
X569196Y31954D01*
X572757Y31000D01*
X576443D01*
X580004Y31954D01*
X583196Y33797D01*
X584773Y35374D01*
X587300Y36021D01*
X589827Y35374D01*
X591404Y33797D01*
X594596Y31954D01*
X598157Y31000D01*
X601843D01*
X605404Y31954D01*
X608596Y33797D01*
X611203Y36404D01*
X611256Y36497D01*
X613201Y36886D01*
X615388Y36755D01*
X623632Y45000D01*
X615388Y53245D01*
X613201Y53114D01*
X611257Y53503D01*
X611203Y53596D01*
X608596Y56203D01*
X605404Y58046D01*
X601843Y59000D01*
X598157D01*
X594596Y58046D01*
X591404Y56203D01*
X589827Y54626D01*
X587300Y53979D01*
X584773Y54626D01*
X583196Y56203D01*
X580004Y58046D01*
X576443Y59000D01*
X572757D01*
X569196Y58046D01*
X566004Y56203D01*
X564427Y54626D01*
X561900Y53979D01*
X559373Y54626D01*
X557796Y56203D01*
X554604Y58046D01*
X551043Y59000D01*
X547357D01*
X544592Y58259D01*
X460526Y142326D01*
X458541Y143652D01*
X456200Y144117D01*
X392161D01*
X358887Y177392D01*
X360418Y181518D01*
X361435Y181595D01*
X362632Y180398D01*
X365368Y178818D01*
X368420Y178000D01*
X371580D01*
X374632Y178818D01*
X377368Y180398D01*
X379602Y182632D01*
X381182Y185368D01*
X382000Y188420D01*
Y191580D01*
X381182Y194632D01*
X379602Y197368D01*
X377661Y200000D01*
X379602Y202632D01*
X381182Y205368D01*
X382000Y208420D01*
Y211580D01*
X381182Y214632D01*
X379602Y217368D01*
X377368Y219602D01*
X374632Y221182D01*
X371580Y222000D01*
X368823D01*
X367304Y223519D01*
Y223814D01*
X366838Y226155D01*
X365512Y228139D01*
X356118Y237534D01*
Y271653D01*
X360117Y273962D01*
X360368Y273818D01*
X363420Y273000D01*
X366580D01*
X369632Y273818D01*
X372368Y275398D01*
X374602Y277632D01*
X374863Y278083D01*
X379214D01*
X380398Y276032D01*
X382632Y273798D01*
X384162Y272914D01*
X384392Y272200D01*
Y269200D01*
X384162Y268486D01*
X382632Y267602D01*
X380398Y265368D01*
X378818Y262632D01*
X378000Y259580D01*
Y256420D01*
X378818Y253368D01*
X380398Y250632D01*
X382632Y248398D01*
X385368Y246818D01*
X388420Y246000D01*
X391580D01*
X394632Y246818D01*
X397368Y248398D01*
X399602Y250632D01*
X400324Y251882D01*
X462000D01*
X464341Y252348D01*
X466326Y253674D01*
X588326Y375674D01*
X589652Y377659D01*
X590117Y380000D01*
Y621000D01*
X589652Y623341D01*
X588326Y625326D01*
X374651Y839000D01*
X376308Y843000D01*
X376580D01*
X379632Y843818D01*
X382368Y845398D01*
X384602Y847632D01*
X386182Y850368D01*
X387000Y853420D01*
Y856580D01*
X386182Y859632D01*
X384602Y862368D01*
X382368Y864602D01*
X382263Y864663D01*
Y877389D01*
X382694Y877504D01*
X385886Y879347D01*
X388493Y881954D01*
X388831Y882539D01*
X393449D01*
X393787Y881954D01*
X396394Y879347D01*
X399586Y877504D01*
X403147Y876550D01*
X406833D01*
X410394Y877504D01*
X413586Y879347D01*
X416193Y881954D01*
X417510Y884236D01*
X420649Y884509D01*
X421923Y884199D01*
X422687Y882875D01*
X422967Y882595D01*
X431806Y891434D01*
X432690Y890550D01*
X433574Y891434D01*
X442413Y882595D01*
X442692Y882875D01*
X444338Y885725D01*
X445190Y888904D01*
Y892196D01*
X444338Y895375D01*
X443727Y896432D01*
X445886Y900432D01*
X456540D01*
X506298Y850674D01*
X508283Y849348D01*
X510624Y848883D01*
X564676D01*
X565398Y847632D01*
X567632Y845398D01*
X570368Y843818D01*
X573420Y843000D01*
X576580D01*
X579632Y843818D01*
X582368Y845398D01*
X584602Y847632D01*
X586182Y850368D01*
X587000Y853420D01*
Y856580D01*
X586182Y859632D01*
X584602Y862368D01*
X582368Y864602D01*
X579632Y866182D01*
X576580Y867000D01*
X573420D01*
X570368Y866182D01*
X567632Y864602D01*
X565398Y862368D01*
X564676Y861117D01*
X513158D01*
X499153Y875123D01*
X499254Y875833D01*
X500933Y879000D01*
X504776D01*
X509751Y879989D01*
X514437Y881931D01*
X518655Y884749D01*
X519564Y885658D01*
X501356Y903866D01*
X483148Y922074D01*
X482239Y921165D01*
X479421Y916947D01*
X477480Y912261D01*
X476490Y907286D01*
Y903443D01*
X473323Y901764D01*
X472612Y901663D01*
X463400Y910876D01*
X461415Y912202D01*
X459074Y912667D01*
X435472D01*
X432591Y916178D01*
X432840Y917107D01*
Y920793D01*
X431886Y924354D01*
X430043Y927546D01*
X427436Y930153D01*
X424244Y931996D01*
X420683Y932950D01*
X416997D01*
X413436Y931996D01*
X410244Y930153D01*
X407637Y927546D01*
X407299Y926961D01*
X402681D01*
X402343Y927546D01*
X399736Y930153D01*
X396544Y931996D01*
X392983Y932950D01*
X389297D01*
X385736Y931996D01*
X382544Y930153D01*
X379937Y927546D01*
X379599Y926961D01*
X374981D01*
X374643Y927546D01*
X372036Y930153D01*
X368844Y931996D01*
X365283Y932950D01*
X361597D01*
X358036Y931996D01*
X354844Y930153D01*
X352237Y927546D01*
X351899Y926961D01*
X347281D01*
X346943Y927546D01*
X344336Y930153D01*
X341144Y931996D01*
X337583Y932950D01*
X333897D01*
X330336Y931996D01*
X327144Y930153D01*
X324537Y927546D01*
X322694Y924354D01*
X321740Y920793D01*
Y917107D01*
X322694Y913546D01*
X324537Y910354D01*
X327144Y907747D01*
X325503Y904076D01*
X323733Y904550D01*
X320047D01*
X316486Y903596D01*
X313294Y901753D01*
X310687Y899146D01*
X308844Y895954D01*
X307890Y892393D01*
Y888707D01*
X308844Y885146D01*
X310687Y881954D01*
X313294Y879347D01*
X316486Y877504D01*
X320047Y876550D01*
X323733D01*
X327294Y877504D01*
X330486Y879347D01*
X333093Y881954D01*
X333431Y882539D01*
X338049D01*
X338387Y881954D01*
X340994Y879347D01*
X343677Y877798D01*
Y865206D01*
X342632Y864602D01*
X340398Y862368D01*
X338818Y859632D01*
X338000Y856580D01*
Y853420D01*
X338818Y850368D01*
X340398Y847632D01*
X342632Y845398D01*
X344321Y844423D01*
X344537Y843777D01*
X344615Y841130D01*
X344294Y839984D01*
X342939Y839202D01*
X340798Y837061D01*
X339284Y834439D01*
X338500Y831514D01*
Y828486D01*
X339284Y825561D01*
X340798Y822939D01*
X341022Y822714D01*
X342504Y820000D01*
X341022Y817286D01*
X340798Y817061D01*
X339284Y814439D01*
X338500Y811514D01*
Y808486D01*
X339284Y805561D01*
X340798Y802939D01*
X342939Y800798D01*
X345561Y799284D01*
X348486Y798500D01*
X351514D01*
X354439Y799284D01*
X357061Y800798D01*
X359202Y802939D01*
X360716Y805561D01*
X361500Y808486D01*
Y811514D01*
X360716Y814439D01*
X359202Y817061D01*
X358978Y817286D01*
X357496Y820000D01*
X358978Y822714D01*
X359202Y822939D01*
X360716Y825561D01*
X361500Y828486D01*
Y829192D01*
X365500Y830849D01*
X577882Y618466D01*
Y382534D01*
X459466Y264118D01*
X400324D01*
X399602Y265368D01*
X397368Y267602D01*
X395838Y268486D01*
X395607Y269200D01*
Y272200D01*
X395838Y272914D01*
X397368Y273798D01*
X399602Y276032D01*
X401182Y278768D01*
X402000Y281820D01*
Y284980D01*
X401182Y288032D01*
X399602Y290768D01*
X397368Y293002D01*
X395838Y293885D01*
X395607Y294600D01*
Y297600D01*
X395838Y298314D01*
X397368Y299198D01*
X399602Y301432D01*
X401182Y304168D01*
X402000Y307220D01*
Y310380D01*
X401182Y313432D01*
X399602Y316168D01*
X397368Y318402D01*
X394632Y319982D01*
X393797Y320206D01*
Y324347D01*
X394053Y324416D01*
X396447Y325798D01*
X396541Y325891D01*
X390000Y332432D01*
X383459Y325891D01*
X383553Y325798D01*
X385947Y324416D01*
X386203Y324347D01*
Y320206D01*
X385368Y319982D01*
X382632Y318402D01*
X380398Y316168D01*
X378818Y313432D01*
X378000Y310380D01*
Y307220D01*
X378818Y304168D01*
X380398Y301432D01*
X382632Y299198D01*
X384162Y298314D01*
X384392Y297600D01*
Y294600D01*
X384162Y293885D01*
X382632Y293002D01*
X380398Y290768D01*
X380137Y290317D01*
X375786D01*
X374602Y292368D01*
X372368Y294602D01*
X369632Y296182D01*
X366580Y297000D01*
X363420D01*
X360368Y296182D01*
X360117Y296038D01*
X356118Y298347D01*
Y393266D01*
X374000Y411148D01*
X378000Y409492D01*
Y408820D01*
X378818Y405768D01*
X380398Y403032D01*
X382632Y400798D01*
X384162Y399914D01*
X384392Y399200D01*
Y396200D01*
X384162Y395485D01*
X382632Y394602D01*
X380398Y392368D01*
X378818Y389632D01*
X378000Y386580D01*
Y383420D01*
X378818Y380368D01*
X380398Y377632D01*
X382632Y375398D01*
X384162Y374514D01*
X384392Y373800D01*
Y370800D01*
X384162Y370085D01*
X382632Y369202D01*
X380398Y366968D01*
X378818Y364232D01*
X378000Y361180D01*
Y358020D01*
X378818Y354968D01*
X380398Y352232D01*
X382632Y349998D01*
X385368Y348418D01*
X386203Y348194D01*
Y344053D01*
X385947Y343984D01*
X383553Y342602D01*
X383459Y342509D01*
X390884Y335084D01*
X398308Y327659D01*
X398402Y327753D01*
X399784Y330147D01*
X400500Y332818D01*
Y334792D01*
X402432Y336086D01*
X404360Y336589D01*
X412978Y327970D01*
X414963Y326644D01*
X417304Y326179D01*
X418601D01*
X418818Y325368D01*
X420398Y322632D01*
X422632Y320398D01*
X425368Y318818D01*
X428420Y318000D01*
X431580D01*
X434632Y318818D01*
X437368Y320398D01*
X439602Y322632D01*
X441182Y325368D01*
X442000Y328420D01*
Y331580D01*
X441182Y334632D01*
X439602Y337368D01*
X437368Y339602D01*
X434632Y341182D01*
X431580Y342000D01*
X428420D01*
X425368Y341182D01*
X422632Y339602D01*
X421443Y338414D01*
X419838D01*
X401626Y356625D01*
X402000Y358020D01*
Y361180D01*
X401182Y364232D01*
X399602Y366968D01*
X397368Y369202D01*
X395838Y370085D01*
X395607Y370800D01*
Y373800D01*
X395838Y374514D01*
X397368Y375398D01*
X399602Y377632D01*
X400485Y379160D01*
X423040D01*
X423601Y378187D01*
X425836Y375953D01*
X428572Y374373D01*
X431624Y373555D01*
X434784D01*
X437836Y374373D01*
X440572Y375953D01*
X442806Y378187D01*
X444386Y380923D01*
X445204Y383975D01*
Y387135D01*
X444386Y390187D01*
X442806Y392923D01*
X440572Y395158D01*
X439740Y395638D01*
X439784Y400208D01*
X440642Y400704D01*
X442876Y402938D01*
X444456Y405674D01*
X445273Y408726D01*
Y411886D01*
X444456Y414938D01*
X442876Y417674D01*
X440642Y419908D01*
X437905Y421488D01*
X434853Y422306D01*
X431694D01*
X428642Y421488D01*
X425905Y419908D01*
X423671Y417674D01*
X422976Y416470D01*
X400351D01*
X399602Y417768D01*
X397368Y420002D01*
X395838Y420886D01*
X395607Y421600D01*
Y424600D01*
X395838Y425314D01*
X397368Y426198D01*
X399602Y428432D01*
X401182Y431168D01*
X402000Y434220D01*
Y437380D01*
X401182Y440432D01*
X399602Y443168D01*
X397368Y445402D01*
X395838Y446286D01*
X395607Y447000D01*
Y450000D01*
X395838Y450714D01*
X397368Y451598D01*
X399602Y453832D01*
X401182Y456568D01*
X402000Y459620D01*
Y462780D01*
X401182Y465832D01*
X399602Y468568D01*
X397368Y470802D01*
X395838Y471685D01*
X395607Y472400D01*
Y475400D01*
X395838Y476114D01*
X397368Y476998D01*
X399602Y479232D01*
X401182Y481968D01*
X402000Y485020D01*
Y488180D01*
X401182Y491232D01*
X399602Y493968D01*
X397368Y496202D01*
X395838Y497085D01*
X395607Y497800D01*
Y500800D01*
X395838Y501514D01*
X397368Y502398D01*
X399602Y504632D01*
X401182Y507368D01*
X402000Y510420D01*
Y513580D01*
X401182Y516632D01*
X399602Y519368D01*
X397368Y521602D01*
X395838Y522486D01*
X395607Y523200D01*
Y526200D01*
X395838Y526914D01*
X397368Y527798D01*
X399602Y530032D01*
X401182Y532768D01*
X402000Y535820D01*
Y538980D01*
X401182Y542032D01*
X399602Y544768D01*
X397368Y547002D01*
X395838Y547886D01*
X395607Y548600D01*
Y551600D01*
X395838Y552314D01*
X397368Y553198D01*
X399453Y555283D01*
X458867D01*
X460398Y552632D01*
X462632Y550398D01*
X465368Y548818D01*
X468420Y548000D01*
X471580D01*
X474632Y548818D01*
X477368Y550398D01*
X479602Y552632D01*
X481182Y555368D01*
X482000Y558420D01*
Y561580D01*
X481182Y564632D01*
X479602Y567368D01*
X477368Y569602D01*
X474632Y571182D01*
X471580Y572000D01*
X468420D01*
X465368Y571182D01*
X462632Y569602D01*
X460547Y567518D01*
X401133D01*
X399602Y570168D01*
X397368Y572402D01*
X395838Y573285D01*
X395607Y574000D01*
Y577000D01*
X395838Y577714D01*
X397368Y578598D01*
X399602Y580832D01*
X401182Y583568D01*
X402000Y586620D01*
Y589780D01*
X401182Y592832D01*
X399602Y595568D01*
X397368Y597802D01*
X395838Y598685D01*
X395607Y599400D01*
Y602400D01*
X395838Y603114D01*
X397368Y603998D01*
X399602Y606232D01*
X401182Y608968D01*
X402000Y612020D01*
Y615180D01*
X401383Y617482D01*
X402542Y619843D01*
X403924Y621483D01*
X509866D01*
X543374Y587975D01*
X543000Y586580D01*
Y583420D01*
X543818Y580368D01*
X545398Y577632D01*
X547632Y575398D01*
X550368Y573818D01*
X553420Y573000D01*
X556580D01*
X559632Y573818D01*
X562368Y575398D01*
X564602Y577632D01*
X566182Y580368D01*
X567000Y583420D01*
Y586580D01*
X566182Y589632D01*
X564602Y592368D01*
X562368Y594602D01*
X559632Y596182D01*
X556580Y597000D01*
X553420D01*
X552025Y596626D01*
X516726Y631926D01*
X514741Y633252D01*
X512400Y633717D01*
X336482D01*
X334951Y637413D01*
X371420Y673883D01*
X414676D01*
X415398Y672632D01*
X417632Y670398D01*
X420368Y668818D01*
X423420Y668000D01*
X426580D01*
X429632Y668818D01*
X432368Y670398D01*
X434602Y672632D01*
X436182Y675368D01*
X437000Y678420D01*
Y681580D01*
X436182Y684632D01*
X434602Y687368D01*
X432368Y689602D01*
X429632Y691182D01*
X426580Y692000D01*
X423420D01*
X420368Y691182D01*
X417632Y689602D01*
X415398Y687368D01*
X414676Y686118D01*
X368886D01*
X366545Y685652D01*
X364561Y684326D01*
X274552Y594318D01*
X247924D01*
X247202Y595568D01*
X244968Y597802D01*
X243438Y598685D01*
X243207Y599400D01*
Y602400D01*
X243438Y603114D01*
X244968Y603998D01*
X247202Y606232D01*
X248782Y608968D01*
X249600Y612020D01*
Y615180D01*
X248782Y618232D01*
X247202Y620968D01*
X244968Y623202D01*
X242232Y624782D01*
X239180Y625600D01*
X236020D01*
X232968Y624782D01*
X230232Y623202D01*
X227998Y620968D01*
X226418Y618232D01*
X225600Y615180D01*
Y612020D01*
X226418Y608968D01*
X227998Y606232D01*
X230232Y603998D01*
X231762Y603114D01*
X231992Y602400D01*
Y599400D01*
X231762Y598685D01*
X230232Y597802D01*
X227998Y595568D01*
X226418Y592832D01*
X225600Y589780D01*
Y586620D01*
X225974Y585225D01*
X210457Y569708D01*
X209119Y570480D01*
X206067Y571298D01*
X202908D01*
X199856Y570480D01*
X197119Y568900D01*
X194885Y566666D01*
X193305Y563930D01*
X192488Y560878D01*
Y560117D01*
X93704D01*
X93674Y560271D01*
X92053Y564184D01*
X89700Y567705D01*
X86705Y570700D01*
X83184Y573053D01*
X79271Y574674D01*
X75118Y575500D01*
X70882D01*
X66729Y574674D01*
X62816Y573053D01*
X59295Y570700D01*
X56300Y567705D01*
X53947Y564184D01*
X52326Y560271D01*
X52055Y558906D01*
X48788D01*
X46447Y558440D01*
X44462Y557114D01*
X32674Y545326D01*
X31348Y543341D01*
X30882Y541000D01*
Y127837D01*
X31348Y125496D01*
X32674Y123511D01*
X57490Y98695D01*
X55960Y95000D01*
X0D01*
Y905000D01*
X100000D01*
Y1000000D01*
X696000D01*
X700000Y1000000D01*
D02*
G37*
G36*
X269935Y578387D02*
X253600Y562052D01*
X249600Y563708D01*
Y564380D01*
X248782Y567432D01*
X247202Y570168D01*
X244968Y572402D01*
X243438Y573285D01*
X243207Y574000D01*
Y577000D01*
X243438Y577714D01*
X244968Y578598D01*
X247202Y580832D01*
X247924Y582082D01*
X268405D01*
X269935Y578387D01*
D02*
G37*
G36*
X225600Y561892D02*
Y561220D01*
X226418Y558168D01*
X227998Y555432D01*
X230232Y553198D01*
X231762Y552314D01*
X231992Y551600D01*
Y548600D01*
X231762Y547886D01*
X230232Y547002D01*
X227998Y544768D01*
X226418Y542032D01*
X225600Y538980D01*
Y535820D01*
X226418Y532768D01*
X227998Y530032D01*
X230232Y527798D01*
X231762Y526914D01*
X231992Y526200D01*
Y523200D01*
X231762Y522486D01*
X230232Y521602D01*
X227998Y519368D01*
X226418Y516632D01*
X225600Y513580D01*
Y510420D01*
X226418Y507368D01*
X227998Y504632D01*
X230232Y502398D01*
X231762Y501514D01*
X231992Y500800D01*
Y497800D01*
X231762Y497085D01*
X230232Y496202D01*
X227998Y493968D01*
X226418Y491232D01*
X225600Y488180D01*
Y485020D01*
X226418Y481968D01*
X227998Y479232D01*
X230232Y476998D01*
X231762Y476114D01*
X231992Y475400D01*
Y472400D01*
X231762Y471685D01*
X230232Y470802D01*
X227998Y468568D01*
X226418Y465832D01*
X225600Y462780D01*
Y461329D01*
X93236Y461329D01*
X92053Y464184D01*
X89700Y467705D01*
X86705Y470700D01*
X83184Y473053D01*
X79271Y474674D01*
X75118Y475500D01*
X70882D01*
X66729Y474674D01*
X62816Y473053D01*
X59295Y470700D01*
X56300Y467705D01*
X53947Y464184D01*
X52326Y460271D01*
X51500Y456118D01*
Y451882D01*
X52326Y447729D01*
X53947Y443816D01*
X56300Y440295D01*
X59295Y437300D01*
X62816Y434947D01*
X66729Y433326D01*
X70882Y432500D01*
X75118D01*
X79271Y433326D01*
X83184Y434947D01*
X86705Y437300D01*
X89700Y440295D01*
X92053Y443816D01*
X93674Y447729D01*
X93945Y449094D01*
X172412Y449094D01*
X173484Y445094D01*
X172632Y444602D01*
X170398Y442368D01*
X168818Y439632D01*
X168000Y436580D01*
Y433420D01*
X168818Y430368D01*
X170398Y427632D01*
X172632Y425398D01*
X175368Y423818D01*
X178420Y423000D01*
X181580D01*
X184632Y423818D01*
X187368Y425398D01*
X189602Y427632D01*
X190555Y429282D01*
X227507D01*
X227998Y428432D01*
X230232Y426198D01*
X231762Y425314D01*
X231992Y424600D01*
Y421600D01*
X231762Y420886D01*
X230232Y420002D01*
X227998Y417768D01*
X227160Y416317D01*
X215209D01*
X214602Y417368D01*
X212368Y419602D01*
X209632Y421182D01*
X206580Y422000D01*
X203420D01*
X200368Y421182D01*
X197632Y419602D01*
X195398Y417368D01*
X193818Y414632D01*
X193000Y411580D01*
Y408420D01*
X193818Y405368D01*
X195398Y402632D01*
X197632Y400398D01*
X200368Y398818D01*
X203420Y398000D01*
X206580D01*
X209632Y398818D01*
X212368Y400398D01*
X214602Y402632D01*
X215440Y404082D01*
X227391D01*
X227998Y403032D01*
X230232Y400798D01*
X231762Y399914D01*
X231992Y399200D01*
Y396200D01*
X231762Y395485D01*
X230232Y394602D01*
X227998Y392368D01*
X226418Y389632D01*
X225600Y386580D01*
Y383420D01*
X226418Y380368D01*
X227998Y377632D01*
X230232Y375398D01*
X231762Y374514D01*
X231992Y373800D01*
Y370800D01*
X231762Y370085D01*
X230232Y369202D01*
X227998Y366968D01*
X226418Y364232D01*
X225600Y361180D01*
Y358020D01*
X226418Y354968D01*
X227998Y352232D01*
X230232Y349998D01*
X231762Y349114D01*
X231992Y348400D01*
Y345400D01*
X231762Y344686D01*
X230232Y343802D01*
X228495Y342066D01*
X226134D01*
X223874Y344326D01*
X221889Y345652D01*
X219548Y346118D01*
X203747D01*
X203602Y346368D01*
X201368Y348602D01*
X198632Y350182D01*
X195580Y351000D01*
X192420D01*
X189368Y350182D01*
X186632Y348602D01*
X184398Y346368D01*
X182818Y343632D01*
X182000Y340580D01*
Y337420D01*
X182818Y334368D01*
X184398Y331632D01*
X186632Y329398D01*
X189368Y327818D01*
X192420Y327000D01*
X195580D01*
X198632Y327818D01*
X201368Y329398D01*
X203602Y331632D01*
X204902Y333882D01*
X217014D01*
X219274Y331622D01*
X221259Y330296D01*
X223600Y329831D01*
X226348D01*
X226418Y329568D01*
X227998Y326832D01*
X230232Y324598D01*
X231762Y323714D01*
X231992Y323000D01*
Y320000D01*
X231762Y319286D01*
X230232Y318402D01*
X227998Y316168D01*
X226418Y313432D01*
X225600Y310380D01*
Y307220D01*
X226418Y304168D01*
X227998Y301432D01*
X230232Y299198D01*
X232968Y297618D01*
X233803Y297394D01*
Y293253D01*
X233547Y293184D01*
X231153Y291802D01*
X231059Y291709D01*
X237600Y285168D01*
X244141Y291709D01*
X244047Y291802D01*
X241653Y293184D01*
X241397Y293253D01*
Y297394D01*
X242232Y297618D01*
X244968Y299198D01*
X247202Y301432D01*
X248782Y304168D01*
X249600Y307220D01*
Y310380D01*
X248782Y313432D01*
X247202Y316168D01*
X244968Y318402D01*
X243438Y319286D01*
X243207Y320000D01*
Y323000D01*
X243438Y323714D01*
X244968Y324598D01*
X247202Y326832D01*
X248782Y329568D01*
X249600Y332620D01*
Y335780D01*
X248782Y338832D01*
X247202Y341568D01*
X244968Y343802D01*
X243438Y344686D01*
X243207Y345400D01*
Y348400D01*
X243438Y349114D01*
X244968Y349998D01*
X247202Y352232D01*
X248782Y354968D01*
X249600Y358020D01*
Y358692D01*
X253600Y360349D01*
X299039Y314909D01*
Y199843D01*
X299505Y197502D01*
X300831Y195517D01*
X413374Y82975D01*
X413000Y81580D01*
Y78420D01*
X413818Y75368D01*
X415398Y72632D01*
X417482Y70547D01*
Y58230D01*
X416796Y58046D01*
X413604Y56203D01*
X410997Y53596D01*
X409154Y50404D01*
X408200Y46843D01*
Y43157D01*
X409154Y39596D01*
X410997Y36404D01*
X412283Y35117D01*
X410626Y31117D01*
X314000D01*
Y58201D01*
X267000Y57772D01*
Y50627D01*
X263000Y48970D01*
X262368Y49602D01*
X259632Y51182D01*
X256580Y52000D01*
X253420D01*
X250368Y51182D01*
X247632Y49602D01*
X245398Y47368D01*
X243818Y44632D01*
X243000Y41580D01*
Y38420D01*
X243818Y35368D01*
X243962Y35117D01*
X241653Y31117D01*
X236697D01*
X231158Y36656D01*
X231500Y38375D01*
Y41625D01*
X230866Y44813D01*
X229622Y47816D01*
X227816Y50518D01*
X225518Y52816D01*
X222816Y54622D01*
X219813Y55866D01*
X216625Y56500D01*
X213375D01*
X210187Y55866D01*
X207184Y54622D01*
X204482Y52816D01*
X202184Y50518D01*
X201350Y49271D01*
X200616Y48984D01*
X197385Y48984D01*
X196651Y49271D01*
X195817Y50519D01*
X193519Y52817D01*
X190816Y54623D01*
X189118Y55326D01*
Y75676D01*
X190368Y76398D01*
X192602Y78632D01*
X194182Y81368D01*
X195000Y84420D01*
Y87580D01*
X194182Y90632D01*
X192602Y93368D01*
X190368Y95602D01*
X187632Y97182D01*
X184580Y98000D01*
X181420D01*
X178368Y97182D01*
X175632Y95602D01*
X173398Y93368D01*
X171818Y90632D01*
X171000Y87580D01*
Y84420D01*
X171818Y81368D01*
X173398Y78632D01*
X175632Y76398D01*
X176883Y75675D01*
Y55326D01*
X175185Y54623D01*
X172483Y52817D01*
X170184Y50519D01*
X168379Y47817D01*
X168353Y47755D01*
X165856Y47355D01*
X163960Y47603D01*
X162651Y49562D01*
X162491Y49723D01*
X151884Y39116D01*
X151000Y40000D01*
X150116Y39116D01*
X139509Y49723D01*
X139349Y49562D01*
X137707Y47105D01*
X136576Y44375D01*
X136277Y42869D01*
X132961Y41483D01*
X132003Y41485D01*
X100000Y73489D01*
Y95000D01*
X78489D01*
X43117Y130371D01*
Y538466D01*
X49281Y544629D01*
X53947Y543816D01*
X56300Y540295D01*
X59295Y537300D01*
X62816Y534947D01*
X66729Y533326D01*
X70882Y532500D01*
X75118D01*
X79271Y533326D01*
X83184Y534947D01*
X86705Y537300D01*
X89700Y540295D01*
X92053Y543816D01*
X93674Y547729D01*
X93704Y547882D01*
X196144D01*
X198485Y548348D01*
X198934Y548648D01*
X199856Y548116D01*
X202908Y547298D01*
X206067D01*
X209119Y548116D01*
X211856Y549696D01*
X214090Y551930D01*
X215670Y554666D01*
X216488Y557718D01*
Y558436D01*
X221600Y563549D01*
X225600Y561892D01*
D02*
G37*
G36*
X230232Y445402D02*
X227998Y443168D01*
X227045Y441517D01*
X190093D01*
X189602Y442368D01*
X187368Y444602D01*
X186516Y445094D01*
X187588Y449094D01*
X228365D01*
X228764Y449174D01*
X230232Y445402D01*
D02*
G37*
G36*
X317441Y423508D02*
X317141Y421368D01*
X312903Y419949D01*
X250855Y481996D01*
X251253Y484039D01*
X255585Y485363D01*
X317441Y423508D01*
D02*
G37*
G36*
X377458Y619843D02*
X378617Y617482D01*
X378000Y615180D01*
Y612020D01*
X378818Y608968D01*
X380398Y606232D01*
X382632Y603998D01*
X384162Y603114D01*
X384392Y602400D01*
Y599400D01*
X384162Y598685D01*
X382632Y597802D01*
X380398Y595568D01*
X378818Y592832D01*
X378000Y589780D01*
Y586620D01*
X378818Y583568D01*
X380398Y580832D01*
X382632Y578598D01*
X384162Y577714D01*
X384392Y577000D01*
Y574000D01*
X384162Y573285D01*
X382632Y572402D01*
X380398Y570168D01*
X378818Y567432D01*
X378000Y564380D01*
Y561220D01*
X378818Y558168D01*
X380398Y555432D01*
X382632Y553198D01*
X384162Y552314D01*
X384392Y551600D01*
Y548600D01*
X384162Y547886D01*
X382632Y547002D01*
X380398Y544768D01*
X378818Y542032D01*
X378000Y538980D01*
Y535820D01*
X378818Y532768D01*
X380398Y530032D01*
X382632Y527798D01*
X384162Y526914D01*
X384392Y526200D01*
Y523200D01*
X384162Y522486D01*
X382632Y521602D01*
X380398Y519368D01*
X378818Y516632D01*
X378000Y513580D01*
Y510420D01*
X378818Y507368D01*
X380398Y504632D01*
X382632Y502398D01*
X384162Y501514D01*
X384392Y500800D01*
Y497800D01*
X384162Y497085D01*
X382632Y496202D01*
X380398Y493968D01*
X378818Y491232D01*
X378000Y488180D01*
Y485020D01*
X378818Y481968D01*
X380398Y479232D01*
X382632Y476998D01*
X384162Y476114D01*
X384392Y475400D01*
Y472400D01*
X384162Y471685D01*
X382632Y470802D01*
X380398Y468568D01*
X378818Y465832D01*
X378000Y462780D01*
Y459620D01*
X378374Y458225D01*
X335674Y415526D01*
X334931Y414414D01*
X330931Y415306D01*
Y424786D01*
X330466Y427127D01*
X329139Y429112D01*
X249226Y509025D01*
X249600Y510420D01*
Y513580D01*
X248782Y516632D01*
X247202Y519368D01*
X244968Y521602D01*
X243438Y522486D01*
X243207Y523200D01*
Y526200D01*
X243438Y526914D01*
X244968Y527798D01*
X247202Y530032D01*
X248782Y532768D01*
X249600Y535820D01*
Y538980D01*
X249226Y540375D01*
X330334Y621483D01*
X376076D01*
X377458Y619843D01*
D02*
G37*
G36*
X376347Y433239D02*
X376745Y431196D01*
X351430Y405882D01*
X347216Y407324D01*
X346942Y409491D01*
X372015Y434563D01*
X376347Y433239D01*
D02*
G37*
G36*
X423671Y402938D02*
X425905Y400704D01*
X426737Y400223D01*
X426693Y395653D01*
X425836Y395158D01*
X423601Y392923D01*
X422719Y391395D01*
X400164D01*
X399602Y392368D01*
X397368Y394602D01*
X395838Y395485D01*
X395607Y396200D01*
Y399200D01*
X395838Y399914D01*
X397368Y400798D01*
X399602Y403032D01*
X400297Y404235D01*
X422922D01*
X423671Y402938D01*
D02*
G37*
G36*
X307039Y408509D02*
Y329438D01*
X303344Y327908D01*
X249226Y382025D01*
X249600Y383420D01*
Y386580D01*
X248782Y389632D01*
X247202Y392368D01*
X244968Y394602D01*
X243438Y395485D01*
X243207Y396200D01*
Y399200D01*
X243438Y399914D01*
X244968Y400798D01*
X247202Y403032D01*
X248782Y405768D01*
X249600Y408820D01*
Y411980D01*
X248782Y415032D01*
X247202Y417768D01*
X244968Y420002D01*
X243438Y420886D01*
X243207Y421600D01*
Y424600D01*
X243438Y425314D01*
X244968Y426198D01*
X247202Y428432D01*
X248782Y431168D01*
X249600Y434220D01*
Y437380D01*
X248782Y440432D01*
X247202Y443168D01*
X244968Y445402D01*
X243438Y446286D01*
X243207Y447000D01*
Y450000D01*
X243438Y450714D01*
X244968Y451598D01*
X247202Y453832D01*
X248782Y456568D01*
X249600Y459620D01*
Y460292D01*
X253600Y461949D01*
X307039Y408509D01*
D02*
G37*
G36*
X355069Y221280D02*
Y220985D01*
X355534Y218644D01*
X356861Y216660D01*
X358844Y214676D01*
X358818Y214632D01*
X358000Y211580D01*
Y208420D01*
X358818Y205368D01*
X360398Y202632D01*
X361733Y200821D01*
X359915Y198044D01*
X355815Y197836D01*
X346118Y207534D01*
Y225005D01*
X349813Y226535D01*
X355069Y221280D01*
D02*
G37*
G36*
X520860Y64689D02*
X519530Y60362D01*
X517481Y59970D01*
X450882Y126570D01*
X452324Y130784D01*
X454491Y131058D01*
X520860Y64689D01*
D02*
G37*
G36*
X497148Y63000D02*
X496883Y61202D01*
X495717Y58775D01*
X492996Y58046D01*
X489804Y56203D01*
X488227Y54626D01*
X485700Y53979D01*
X483173Y54626D01*
X481596Y56203D01*
X478404Y58046D01*
X474843Y59000D01*
X471157D01*
X467596Y58046D01*
X464404Y56203D01*
X462827Y54626D01*
X460300Y53979D01*
X457773Y54626D01*
X456196Y56203D01*
X453004Y58046D01*
X449443Y59000D01*
X445757D01*
X442196Y58046D01*
X439004Y56203D01*
X437427Y54626D01*
X434900Y53979D01*
X432373Y54626D01*
X430796Y56203D01*
X429717Y56825D01*
Y68867D01*
X432368Y70398D01*
X434602Y72632D01*
X436182Y75368D01*
X437000Y78420D01*
Y81580D01*
X436182Y84632D01*
X434602Y87368D01*
X432368Y89602D01*
X429632Y91182D01*
X426580Y92000D01*
X423420D01*
X422025Y91626D01*
X393465Y120187D01*
X394995Y123883D01*
X436266D01*
X497148Y63000D01*
D02*
G37*
%LPC*%
G36*
X504776Y930500D02*
X499704D01*
X494729Y929510D01*
X490043Y927569D01*
X485825Y924751D01*
X484916Y923842D01*
X502240Y906518D01*
X519564Y923842D01*
X518655Y924751D01*
X514437Y927569D01*
X509751Y929510D01*
X504776Y930500D01*
D02*
G37*
G36*
X254876D02*
X249804D01*
X244829Y929510D01*
X240143Y927569D01*
X235925Y924751D01*
X235016Y923842D01*
X252340Y906518D01*
X269664Y923842D01*
X268755Y924751D01*
X264537Y927569D01*
X259851Y929510D01*
X254876Y930500D01*
D02*
G37*
G36*
X233248Y922074D02*
X232339Y921165D01*
X229521Y916947D01*
X227580Y912261D01*
X226590Y907286D01*
Y902214D01*
X227580Y897239D01*
X229521Y892553D01*
X232339Y888335D01*
X233248Y887426D01*
X250572Y904750D01*
X233248Y922074D01*
D02*
G37*
G36*
X521332Y922074D02*
X504008Y904750D01*
X521332Y887426D01*
X522241Y888335D01*
X525059Y892553D01*
X527000Y897239D01*
X527990Y902214D01*
Y907286D01*
X527000Y912261D01*
X525059Y916947D01*
X522241Y921165D01*
X521332Y922074D01*
D02*
G37*
G36*
X271432D02*
X254108Y904750D01*
X271432Y887426D01*
X272341Y888335D01*
X275159Y892553D01*
X277100Y897239D01*
X278090Y902214D01*
Y907286D01*
X277100Y912261D01*
X275159Y916947D01*
X272341Y921165D01*
X271432Y922074D01*
D02*
G37*
G36*
X252340Y902982D02*
X235016Y885658D01*
X235925Y884749D01*
X240143Y881931D01*
X244829Y879989D01*
X249804Y879000D01*
X254876D01*
X259851Y879989D01*
X264537Y881931D01*
X268755Y884749D01*
X269664Y885658D01*
X252340Y902982D01*
D02*
G37*
G36*
X432690Y888782D02*
X424735Y880827D01*
X425015Y880547D01*
X427727Y878981D01*
Y869040D01*
X435000Y861768D01*
X441541Y868308D01*
X441447Y868402D01*
X439963Y869259D01*
Y880315D01*
X440365Y880547D01*
X440645Y880827D01*
X432690Y888782D01*
D02*
G37*
G36*
X443308Y866541D02*
X436768Y860000D01*
X443308Y853459D01*
X443402Y853553D01*
X444784Y855947D01*
X445500Y858618D01*
Y861382D01*
X444784Y864053D01*
X443402Y866447D01*
X443308Y866541D01*
D02*
G37*
G36*
X426692D02*
X426598Y866447D01*
X425216Y864053D01*
X424500Y861382D01*
Y858618D01*
X425216Y855947D01*
X426598Y853553D01*
X426692Y853459D01*
X433232Y860000D01*
X426692Y866541D01*
D02*
G37*
G36*
X435000Y858232D02*
X428459Y851692D01*
X428553Y851598D01*
X430947Y850216D01*
X433618Y849500D01*
X436382D01*
X439053Y850216D01*
X441447Y851598D01*
X441541Y851692D01*
X435000Y858232D01*
D02*
G37*
G36*
X706895Y859910D02*
X702605D01*
X698369Y859239D01*
X694290Y857914D01*
X690468Y855966D01*
X686998Y853445D01*
X683965Y850412D01*
X681444Y846942D01*
X679496Y843120D01*
X678171Y839041D01*
X677500Y834805D01*
Y830515D01*
X678040Y827106D01*
X676137Y825657D01*
X674372Y825116D01*
X665163Y834326D01*
X663178Y835652D01*
X660837Y836117D01*
X524600D01*
X522259Y835652D01*
X520274Y834326D01*
X513391Y827443D01*
X511311Y828000D01*
X507888D01*
X504582Y827114D01*
X501618Y825403D01*
X499197Y822982D01*
X497486Y820018D01*
X496600Y816712D01*
Y813288D01*
X497486Y809982D01*
X497535Y809897D01*
X495513Y807874D01*
X494186Y805890D01*
X493721Y803549D01*
Y791072D01*
X493802Y790666D01*
Y750278D01*
X492632Y749602D01*
X490398Y747368D01*
X488818Y744632D01*
X488000Y741580D01*
Y738420D01*
X488818Y735368D01*
X490398Y732632D01*
X492632Y730398D01*
X495368Y728818D01*
X498420Y728000D01*
X501580D01*
X504632Y728818D01*
X507368Y730398D01*
X509602Y732632D01*
X511182Y735368D01*
X512000Y738420D01*
Y741580D01*
X511182Y744632D01*
X509602Y747368D01*
X507368Y749602D01*
X506037Y750371D01*
Y790991D01*
X505956Y791398D01*
Y798452D01*
X507888Y802000D01*
X511311D01*
X514618Y802886D01*
X517582Y804597D01*
X520003Y807018D01*
X524210D01*
X526861Y803955D01*
X526031Y800560D01*
X525674Y800203D01*
X524348Y798219D01*
X523882Y795877D01*
Y790324D01*
X522632Y789602D01*
X520398Y787368D01*
X518818Y784632D01*
X518000Y781580D01*
Y778420D01*
X518818Y775368D01*
X520398Y772632D01*
X522632Y770398D01*
X525368Y768818D01*
X528420Y768000D01*
X531580D01*
X534632Y768818D01*
X537368Y770398D01*
X539602Y772632D01*
X541182Y775368D01*
X542000Y778420D01*
Y781580D01*
X541182Y784632D01*
X539602Y787368D01*
X537368Y789602D01*
X537107Y789753D01*
X536744Y793969D01*
X538448Y795674D01*
X539775Y797659D01*
X540240Y800000D01*
Y803014D01*
X542982Y804597D01*
X545403Y807018D01*
X547114Y809982D01*
X548000Y813288D01*
Y816712D01*
X547114Y820018D01*
X549502Y823883D01*
X658303D01*
X686373Y795813D01*
X684842Y792117D01*
X671592D01*
X671402Y792447D01*
X671309Y792541D01*
X664768Y786000D01*
X671309Y779459D01*
X671402Y779553D01*
X671592Y779883D01*
X682112D01*
X682543Y779272D01*
X681954Y774313D01*
X679347Y771706D01*
X677504Y768514D01*
X677279Y767673D01*
X654298D01*
X652368Y769602D01*
X649632Y771182D01*
X646580Y772000D01*
X643420D01*
X640368Y771182D01*
X637632Y769602D01*
X635398Y767368D01*
X633818Y764632D01*
X633000Y761580D01*
Y758420D01*
X633818Y755368D01*
X635398Y752632D01*
X637632Y750398D01*
X638882Y749676D01*
Y586166D01*
X639348Y583824D01*
X640674Y581840D01*
X644883Y577631D01*
Y409636D01*
X640674Y405428D01*
X639348Y403443D01*
X638882Y401102D01*
Y250324D01*
X637632Y249602D01*
X635398Y247368D01*
X633818Y244632D01*
X633000Y241580D01*
Y238420D01*
X633818Y235368D01*
X635398Y232632D01*
X637632Y230398D01*
X640368Y228818D01*
X643420Y228000D01*
X646580D01*
X649632Y228818D01*
X652368Y230398D01*
X654602Y232632D01*
X655324Y233883D01*
X705000D01*
X707341Y234348D01*
X709326Y235674D01*
X723276Y249624D01*
X724602Y251609D01*
X725068Y253950D01*
Y259266D01*
X727546Y260697D01*
X730153Y263304D01*
X731996Y266496D01*
X732950Y270057D01*
Y273743D01*
X731996Y277304D01*
X730153Y280496D01*
X727546Y283103D01*
X726961Y283441D01*
Y288059D01*
X727546Y288397D01*
X730153Y291004D01*
X731996Y294196D01*
X732950Y297757D01*
Y301443D01*
X731996Y305004D01*
X730153Y308196D01*
X727546Y310803D01*
X726961Y311141D01*
Y315759D01*
X727546Y316097D01*
X730153Y318704D01*
X731996Y321896D01*
X732950Y325457D01*
Y329143D01*
X732209Y331908D01*
X739276Y338974D01*
X740602Y340959D01*
X741068Y343300D01*
Y365050D01*
X740602Y367391D01*
X739276Y369376D01*
X701353Y407299D01*
X702189Y409870D01*
X703158Y411150D01*
X706895D01*
X711131Y411821D01*
X715210Y413146D01*
X719032Y415094D01*
X719248Y415251D01*
X753883Y380616D01*
Y246284D01*
X719248Y211649D01*
X719032Y211806D01*
X715210Y213754D01*
X711131Y215079D01*
X706895Y215750D01*
X702605D01*
X698369Y215079D01*
X694290Y213754D01*
X690468Y211806D01*
X686998Y209285D01*
X683965Y206252D01*
X681444Y202782D01*
X679496Y198960D01*
X678171Y194881D01*
X677500Y190645D01*
Y186355D01*
X678171Y182119D01*
X679496Y178040D01*
X681444Y174218D01*
X683965Y170748D01*
X686998Y167715D01*
X690468Y165194D01*
X694290Y163246D01*
X696257Y162607D01*
Y141589D01*
X695041Y141347D01*
X691947Y140065D01*
X691850Y140000D01*
X685000D01*
Y133150D01*
X684935Y133053D01*
X683653Y129959D01*
X683000Y126674D01*
Y123326D01*
X683653Y120041D01*
X684935Y116947D01*
X685000Y116850D01*
Y110000D01*
X691850D01*
X691947Y109935D01*
X695041Y108653D01*
X698326Y108000D01*
X701674D01*
X704959Y108653D01*
X708053Y109935D01*
X708150Y110000D01*
X741850D01*
X741947Y109935D01*
X745041Y108653D01*
X748326Y108000D01*
X751674D01*
X754959Y108653D01*
X758053Y109935D01*
X758150Y110000D01*
X765000D01*
Y116850D01*
X765065Y116947D01*
X766347Y120041D01*
X767000Y123326D01*
Y126674D01*
X766347Y129959D01*
X765065Y133053D01*
X765000Y133150D01*
Y140000D01*
X758150D01*
X758053Y140065D01*
X754959Y141347D01*
X751674Y142000D01*
X748326D01*
X745041Y141347D01*
X741947Y140065D01*
X741850Y140000D01*
X708493D01*
Y161503D01*
X711131Y161921D01*
X715210Y163246D01*
X719032Y165194D01*
X722502Y167715D01*
X725535Y170748D01*
X728056Y174218D01*
X730004Y178040D01*
X731329Y182119D01*
X732000Y186355D01*
Y190645D01*
X731329Y194881D01*
X730004Y198960D01*
X728056Y202782D01*
X727899Y202998D01*
X764326Y239424D01*
X765652Y241409D01*
X766117Y243750D01*
Y383150D01*
X765652Y385491D01*
X764326Y387476D01*
X727899Y423902D01*
X728056Y424118D01*
X730004Y427940D01*
X731329Y432019D01*
X732000Y436255D01*
Y440545D01*
X731329Y444781D01*
X730004Y448860D01*
X728056Y452682D01*
X725535Y456152D01*
X722502Y459185D01*
X719032Y461706D01*
X715210Y463653D01*
X711131Y464979D01*
X710867Y465021D01*
Y500000D01*
X741850D01*
X741947Y499935D01*
X745041Y498653D01*
X748326Y498000D01*
X751674D01*
X754959Y498653D01*
X758053Y499935D01*
X758150Y500000D01*
X765000D01*
Y506850D01*
X765065Y506948D01*
X766347Y510041D01*
X767000Y513326D01*
Y516674D01*
X766347Y519959D01*
X765065Y523052D01*
X765000Y523150D01*
Y530000D01*
X758150D01*
X758053Y530065D01*
X754959Y531347D01*
X751674Y532000D01*
X748326D01*
X745041Y531347D01*
X741947Y530065D01*
X741850Y530000D01*
X710867D01*
Y556139D01*
X711131Y556181D01*
X715210Y557506D01*
X719032Y559454D01*
X722502Y561975D01*
X725535Y565008D01*
X728056Y568478D01*
X730004Y572300D01*
X731329Y576379D01*
X732000Y580615D01*
Y584905D01*
X731329Y589141D01*
X730004Y593220D01*
X728056Y597042D01*
X727899Y597258D01*
X769326Y638684D01*
X770652Y640669D01*
X771117Y643010D01*
Y772410D01*
X770652Y774751D01*
X769326Y776736D01*
X727899Y818162D01*
X728056Y818378D01*
X730004Y822200D01*
X731329Y826279D01*
X732000Y830515D01*
Y834805D01*
X731329Y839041D01*
X730004Y843120D01*
X728056Y846942D01*
X725535Y850412D01*
X722502Y853445D01*
X719032Y855966D01*
X715210Y857914D01*
X711131Y859239D01*
X706895Y859910D01*
D02*
G37*
G36*
X664382Y796500D02*
X661618D01*
X658947Y795784D01*
X656553Y794402D01*
X656459Y794308D01*
X663000Y787768D01*
X669541Y794308D01*
X669447Y794402D01*
X667053Y795784D01*
X664382Y796500D01*
D02*
G37*
G36*
X654691Y792541D02*
X654598Y792447D01*
X653216Y790053D01*
X652500Y787382D01*
Y784618D01*
X653216Y781947D01*
X654598Y779553D01*
X654691Y779459D01*
X661232Y786000D01*
X654691Y792541D01*
D02*
G37*
G36*
X663000Y784232D02*
X656459Y777691D01*
X656553Y777598D01*
X658947Y776216D01*
X661618Y775500D01*
X664382D01*
X667053Y776216D01*
X669447Y777598D01*
X669541Y777691D01*
X663000Y784232D01*
D02*
G37*
G36*
X75118Y625500D02*
X70882D01*
X66729Y624674D01*
X62816Y623053D01*
X59295Y620700D01*
X56300Y617705D01*
X53947Y614184D01*
X52326Y610271D01*
X51500Y606118D01*
Y601882D01*
X52326Y597729D01*
X53947Y593816D01*
X56300Y590295D01*
X59295Y587300D01*
X62816Y584947D01*
X66729Y583326D01*
X70882Y582500D01*
X75118D01*
X79271Y583326D01*
X83184Y584947D01*
X86705Y587300D01*
X89700Y590295D01*
X92053Y593816D01*
X93674Y597729D01*
X93924Y598988D01*
X129614D01*
X130398Y597632D01*
X132632Y595398D01*
X135368Y593818D01*
X138420Y593000D01*
X141580D01*
X144632Y593818D01*
X147368Y595398D01*
X149602Y597632D01*
X151182Y600368D01*
X152000Y603420D01*
Y606580D01*
X151182Y609632D01*
X149602Y612368D01*
X147368Y614602D01*
X144632Y616182D01*
X141580Y617000D01*
X138420D01*
X135368Y616182D01*
X132632Y614602D01*
X130398Y612368D01*
X129737Y611223D01*
X93279D01*
X92053Y614184D01*
X89700Y617705D01*
X86705Y620700D01*
X83184Y623053D01*
X79271Y624674D01*
X75118Y625500D01*
D02*
G37*
G36*
X381692Y340741D02*
X381598Y340647D01*
X380216Y338253D01*
X379500Y335582D01*
Y332818D01*
X380216Y330147D01*
X381598Y327753D01*
X381692Y327659D01*
X388232Y334200D01*
X381692Y340741D01*
D02*
G37*
G36*
X626382Y85500D02*
X623618D01*
X620947Y84784D01*
X618553Y83402D01*
X618459Y83308D01*
X625000Y76768D01*
X631541Y83308D01*
X631447Y83402D01*
X629053Y84784D01*
X626382Y85500D01*
D02*
G37*
G36*
X633308Y81541D02*
X626768Y75000D01*
X633308Y68459D01*
X633402Y68553D01*
X634784Y70947D01*
X635500Y73618D01*
Y76382D01*
X634784Y79053D01*
X633402Y81447D01*
X633308Y81541D01*
D02*
G37*
G36*
X616692D02*
X616598Y81447D01*
X615216Y79053D01*
X614500Y76382D01*
Y73618D01*
X615216Y70947D01*
X616598Y68553D01*
X616692Y68459D01*
X623232Y75000D01*
X616692Y81541D01*
D02*
G37*
G36*
X625000Y73232D02*
X618459Y66691D01*
X618553Y66598D01*
X619082Y66292D01*
Y55786D01*
X617725Y55002D01*
X617445Y54723D01*
X625400Y46768D01*
X633355Y54723D01*
X633075Y55002D01*
X631317Y56017D01*
Y66523D01*
X631447Y66598D01*
X631541Y66691D01*
X625000Y73232D01*
D02*
G37*
G36*
X635123Y52955D02*
X627168Y45000D01*
X635123Y37045D01*
X635402Y37325D01*
X637048Y40175D01*
X637900Y43354D01*
Y46646D01*
X637048Y49825D01*
X635402Y52675D01*
X635123Y52955D01*
D02*
G37*
G36*
X625400Y43232D02*
X617445Y35277D01*
X617725Y34997D01*
X620575Y33352D01*
X623754Y32500D01*
X627046D01*
X630225Y33352D01*
X633075Y34997D01*
X633355Y35277D01*
X625400Y43232D01*
D02*
G37*
%LPD*%
G36*
X758883Y769876D02*
Y645544D01*
X719248Y605909D01*
X719032Y606066D01*
X715210Y608013D01*
X711131Y609339D01*
X706895Y610010D01*
X704943D01*
X703287Y614010D01*
X739276Y650000D01*
X740602Y651985D01*
X741068Y654326D01*
Y705560D01*
X740602Y707901D01*
X739276Y709886D01*
X732209Y716952D01*
X732950Y719717D01*
Y723403D01*
X732209Y726168D01*
X739276Y733234D01*
X740602Y735219D01*
X741068Y737560D01*
Y755887D01*
X740602Y758229D01*
X739276Y760213D01*
X697206Y802282D01*
X697747Y804047D01*
X699196Y805950D01*
X702605Y805410D01*
X706895D01*
X711131Y806081D01*
X715210Y807406D01*
X719032Y809354D01*
X719248Y809510D01*
X758883Y769876D01*
D02*
G37*
G36*
X679347Y754514D02*
X681954Y751907D01*
X682539Y751569D01*
Y746951D01*
X681954Y746613D01*
X679347Y744006D01*
X677798Y741322D01*
X670206D01*
X669602Y742368D01*
X667368Y744602D01*
X664632Y746182D01*
X661580Y747000D01*
X658420D01*
X657224Y746679D01*
X653745Y749326D01*
X653566Y749672D01*
X653539Y751568D01*
X654602Y752632D01*
X656182Y755368D01*
X656201Y755437D01*
X678814D01*
X679347Y754514D01*
D02*
G37*
G36*
Y726814D02*
X681954Y724207D01*
X684236Y722889D01*
X684509Y719751D01*
X684199Y718477D01*
X682875Y717712D01*
X682595Y717433D01*
X690550Y709478D01*
X698505Y717433D01*
X698225Y717712D01*
X696901Y718477D01*
X696591Y719751D01*
X696864Y722889D01*
X699146Y724207D01*
X701753Y726814D01*
X705424Y725173D01*
X704950Y723403D01*
Y719717D01*
X705904Y716156D01*
X707747Y712964D01*
X710354Y710357D01*
X710939Y710019D01*
Y705400D01*
X710354Y705063D01*
X707747Y702456D01*
X705904Y699264D01*
X704950Y695703D01*
Y692017D01*
X705424Y690247D01*
X701753Y688606D01*
X699146Y691213D01*
X696864Y692530D01*
X696591Y695669D01*
X696901Y696943D01*
X698225Y697708D01*
X698505Y697987D01*
X690550Y705942D01*
X682595Y697987D01*
X682875Y697708D01*
X684199Y696943D01*
X684509Y695669D01*
X684236Y692530D01*
X681954Y691213D01*
X679347Y688606D01*
X677504Y685414D01*
X676550Y681853D01*
Y678167D01*
X677504Y674606D01*
X679347Y671414D01*
X681954Y668807D01*
X682539Y668469D01*
Y663851D01*
X681954Y663513D01*
X679347Y660906D01*
X677504Y657714D01*
X676550Y654153D01*
Y650467D01*
X677504Y646906D01*
X679347Y643714D01*
X681954Y641107D01*
X685146Y639264D01*
X688707Y638310D01*
X692166D01*
X692675Y637744D01*
X694215Y634657D01*
X674175Y613512D01*
X674118Y613422D01*
X674102Y613408D01*
X672807Y611931D01*
X672412Y611652D01*
X654833Y593103D01*
X651117Y594585D01*
Y698607D01*
X651247Y698766D01*
X655117Y700695D01*
X655947Y700216D01*
X658618Y699500D01*
X661382D01*
X664053Y700216D01*
X666447Y701598D01*
X666541Y701692D01*
X659116Y709116D01*
X660000Y710000D01*
X659116Y710884D01*
X666541Y718308D01*
X666447Y718402D01*
X664364Y719605D01*
X664168Y720728D01*
X664543Y723794D01*
X664632Y723818D01*
X667368Y725398D01*
X669602Y727632D01*
X670443Y729087D01*
X678035D01*
X679347Y726814D01*
D02*
G37*
G36*
X686998Y561975D02*
X690468Y559454D01*
X694290Y557506D01*
X698369Y556181D01*
X698632Y556139D01*
Y532000D01*
X698326D01*
X695041Y531347D01*
X691947Y530065D01*
X691850Y530000D01*
X685000D01*
X681618Y531491D01*
Y561698D01*
X685618Y563355D01*
X686998Y561975D01*
D02*
G37*
G36*
X691947Y499935D02*
X695041Y498653D01*
X698326Y498000D01*
X698632D01*
Y465021D01*
X698369Y464979D01*
X694290Y463653D01*
X690468Y461706D01*
X686998Y459185D01*
X685618Y457805D01*
X681618Y459462D01*
Y498509D01*
X685000Y500000D01*
X691850D01*
X691947Y499935D01*
D02*
G37*
G36*
X669571Y585053D02*
X669397Y582831D01*
X669382Y582760D01*
Y438400D01*
X669397Y438329D01*
X669826Y432869D01*
X670305Y430876D01*
X670290Y430741D01*
X670493Y428337D01*
X666727Y425408D01*
X666382Y425500D01*
X663618D01*
X661117Y424830D01*
X660934Y424792D01*
X657117Y427192D01*
Y577727D01*
X665695Y586777D01*
X669571Y585053D01*
D02*
G37*
G36*
X689499Y386850D02*
X689082Y384745D01*
X688342Y383291D01*
X684301Y382453D01*
X666446Y400308D01*
X667455Y404002D01*
X671284Y405065D01*
X689499Y386850D01*
D02*
G37*
G36*
X677017Y372434D02*
X676550Y370693D01*
Y367007D01*
X677504Y363446D01*
X679347Y360254D01*
X681954Y357647D01*
X682539Y357309D01*
Y352691D01*
X681954Y352353D01*
X679347Y349746D01*
X677584Y346693D01*
X669992D01*
X669602Y347368D01*
X667368Y349602D01*
X664632Y351182D01*
X661580Y352000D01*
X658420D01*
X655368Y351182D01*
X655117Y351037D01*
X651117Y353347D01*
Y393107D01*
X654813Y394637D01*
X677017Y372434D01*
D02*
G37*
G36*
X679347Y332554D02*
X681954Y329947D01*
X684236Y328629D01*
X684509Y325491D01*
X684199Y324217D01*
X682875Y323452D01*
X682595Y323173D01*
X690550Y315218D01*
X698505Y323173D01*
X698225Y323452D01*
X696901Y324217D01*
X696591Y325491D01*
X696864Y328629D01*
X699146Y329947D01*
X701753Y332554D01*
X705424Y330913D01*
X704950Y329143D01*
Y325457D01*
X705904Y321896D01*
X707747Y318704D01*
X710354Y316097D01*
X710939Y315759D01*
Y311141D01*
X710354Y310803D01*
X707747Y308196D01*
X705904Y305004D01*
X704950Y301443D01*
Y297757D01*
X705424Y295987D01*
X701753Y294346D01*
X699146Y296953D01*
X696864Y298270D01*
X696591Y301409D01*
X696901Y302683D01*
X698225Y303447D01*
X698505Y303727D01*
X690550Y311682D01*
X682595Y303727D01*
X682875Y303447D01*
X684199Y302683D01*
X684509Y301409D01*
X684236Y298270D01*
X681954Y296953D01*
X679347Y294346D01*
X677504Y291154D01*
X676550Y287593D01*
Y283907D01*
X677504Y280346D01*
X679347Y277154D01*
X681954Y274547D01*
X682539Y274209D01*
Y269591D01*
X681954Y269253D01*
X679347Y266646D01*
X677504Y263454D01*
X676550Y259893D01*
Y256207D01*
X677504Y252646D01*
X678964Y250117D01*
X678180Y247775D01*
X677027Y246117D01*
X655324D01*
X654602Y247368D01*
X652368Y249602D01*
X651117Y250324D01*
Y303607D01*
X651247Y303766D01*
X655117Y305695D01*
X655947Y305216D01*
X658618Y304500D01*
X661382D01*
X664053Y305216D01*
X666447Y306598D01*
X666541Y306691D01*
X659116Y314116D01*
X660000Y315000D01*
X659116Y315884D01*
X666541Y323308D01*
X666447Y323402D01*
X664364Y324605D01*
X664168Y325728D01*
X664543Y328794D01*
X664632Y328818D01*
X667368Y330398D01*
X669602Y332632D01*
X670656Y334458D01*
X678248D01*
X679347Y332554D01*
D02*
G37*
%LPC*%
G36*
X700273Y715665D02*
X692318Y707710D01*
X700273Y699755D01*
X700552Y700035D01*
X702198Y702885D01*
X703050Y706064D01*
Y709356D01*
X702198Y712535D01*
X700552Y715385D01*
X700273Y715665D01*
D02*
G37*
G36*
X668308Y716541D02*
X661768Y710000D01*
X669030Y702737D01*
X678987D01*
X680547Y700035D01*
X680827Y699755D01*
X688782Y707710D01*
X680827Y715665D01*
X680547Y715385D01*
X680309Y714973D01*
X669253D01*
X668402Y716447D01*
X668308Y716541D01*
D02*
G37*
G36*
X700273Y321405D02*
X692318Y313450D01*
X700273Y305495D01*
X700552Y305775D01*
X702198Y308625D01*
X703050Y311804D01*
Y315096D01*
X702198Y318275D01*
X700552Y321125D01*
X700273Y321405D01*
D02*
G37*
G36*
X668308Y321541D02*
X661768Y315000D01*
X668660Y308107D01*
X679201D01*
X680547Y305775D01*
X680827Y305495D01*
X688782Y313450D01*
X680827Y321405D01*
X680547Y321125D01*
X680096Y320342D01*
X669040D01*
X668402Y321447D01*
X668308Y321541D01*
D02*
G37*
G36*
X141382Y515500D02*
X138618D01*
X135947Y514784D01*
X133553Y513402D01*
X133459Y513308D01*
X140000Y506768D01*
X146541Y513308D01*
X146447Y513402D01*
X144053Y514784D01*
X141382Y515500D01*
D02*
G37*
G36*
X74970Y524000D02*
X71030D01*
X67166Y523231D01*
X63527Y521724D01*
X60251Y519535D01*
X59742Y519026D01*
X73000Y505768D01*
X86258Y519026D01*
X85749Y519535D01*
X82473Y521724D01*
X78834Y523231D01*
X74970Y524000D01*
D02*
G37*
G36*
X148308Y511541D02*
X141768Y505000D01*
X148308Y498459D01*
X148402Y498553D01*
X149784Y500947D01*
X150500Y503618D01*
Y506382D01*
X149784Y509053D01*
X148402Y511447D01*
X148308Y511541D01*
D02*
G37*
G36*
X140000Y503232D02*
X133459Y496692D01*
X133553Y496598D01*
X135947Y495216D01*
X138618Y494500D01*
X141382D01*
X144053Y495216D01*
X146447Y496598D01*
X146541Y496692D01*
X140000Y503232D01*
D02*
G37*
G36*
X88026Y517258D02*
X74768Y504000D01*
X88026Y490742D01*
X88535Y491251D01*
X90724Y494526D01*
X92231Y498166D01*
X92274Y498382D01*
X131615D01*
X138232Y505000D01*
X131692Y511541D01*
X131598Y511447D01*
X131119Y510617D01*
X91907D01*
X90724Y513474D01*
X88535Y516749D01*
X88026Y517258D01*
D02*
G37*
G36*
X57974D02*
X57465Y516749D01*
X55276Y513474D01*
X53769Y509834D01*
X53000Y505970D01*
Y502030D01*
X53769Y498166D01*
X55276Y494526D01*
X57465Y491251D01*
X57974Y490742D01*
X71232Y504000D01*
X57974Y517258D01*
D02*
G37*
G36*
X73000Y502232D02*
X59742Y488974D01*
X60251Y488465D01*
X63527Y486276D01*
X67166Y484769D01*
X71030Y484000D01*
X74970D01*
X78834Y484769D01*
X82473Y486276D01*
X85749Y488465D01*
X86258Y488974D01*
X73000Y502232D01*
D02*
G37*
G36*
X75118Y425500D02*
X70882D01*
X66729Y424674D01*
X62816Y423053D01*
X59295Y420700D01*
X56300Y417705D01*
X53947Y414184D01*
X52326Y410271D01*
X51500Y406118D01*
Y401882D01*
X52326Y397729D01*
X53947Y393816D01*
X56300Y390295D01*
X59295Y387300D01*
X62816Y384947D01*
X66729Y383326D01*
X70882Y382500D01*
X75118D01*
X79271Y383326D01*
X83184Y384947D01*
X86705Y387300D01*
X89700Y390295D01*
X92053Y393816D01*
X93674Y397729D01*
X93704Y397882D01*
X130753D01*
X133094Y398348D01*
X134525Y399305D01*
X135368Y398818D01*
X138420Y398000D01*
X141580D01*
X144632Y398818D01*
X147368Y400398D01*
X149602Y402632D01*
X151182Y405368D01*
X152000Y408420D01*
Y411580D01*
X151182Y414632D01*
X149602Y417368D01*
X147368Y419602D01*
X144632Y421182D01*
X141580Y422000D01*
X138420D01*
X135368Y421182D01*
X132632Y419602D01*
X130398Y417368D01*
X128818Y414632D01*
X128000Y411580D01*
Y410117D01*
X93704D01*
X93674Y410271D01*
X92053Y414184D01*
X89700Y417705D01*
X86705Y420700D01*
X83184Y423053D01*
X79271Y424674D01*
X75118Y425500D01*
D02*
G37*
G36*
X245908Y289941D02*
X239368Y283400D01*
X245908Y276859D01*
X246002Y276953D01*
X247384Y279347D01*
X248100Y282018D01*
Y284782D01*
X247384Y287453D01*
X246002Y289847D01*
X245908Y289941D01*
D02*
G37*
G36*
X229291D02*
X229198Y289847D01*
X227816Y287453D01*
X227100Y284782D01*
Y282018D01*
X227816Y279347D01*
X229198Y276953D01*
X229291Y276859D01*
X235832Y283400D01*
X229291Y289941D01*
D02*
G37*
G36*
X237600Y281632D02*
X231059Y275091D01*
X231153Y274998D01*
X233547Y273616D01*
X233803Y273547D01*
Y269406D01*
X232968Y269182D01*
X230232Y267602D01*
X227998Y265368D01*
X226418Y262632D01*
X225600Y259580D01*
Y256420D01*
X226418Y253368D01*
X227998Y250632D01*
X230232Y248398D01*
X232968Y246818D01*
X236020Y246000D01*
X239180D01*
X242232Y246818D01*
X244968Y248398D01*
X247202Y250632D01*
X248782Y253368D01*
X249600Y256420D01*
Y259580D01*
X248782Y262632D01*
X247202Y265368D01*
X244968Y267602D01*
X242232Y269182D01*
X241397Y269406D01*
Y273547D01*
X241653Y273616D01*
X244047Y274998D01*
X244141Y275091D01*
X237600Y281632D01*
D02*
G37*
G36*
X151382Y95500D02*
X148618D01*
X145947Y94784D01*
X143553Y93402D01*
X143459Y93308D01*
X150000Y86768D01*
X156541Y93308D01*
X156447Y93402D01*
X154053Y94784D01*
X151382Y95500D01*
D02*
G37*
G36*
X158308Y91541D02*
X151768Y85000D01*
X158308Y78459D01*
X158402Y78553D01*
X159784Y80947D01*
X160500Y83618D01*
Y86382D01*
X159784Y89053D01*
X158402Y91447D01*
X158308Y91541D01*
D02*
G37*
G36*
X141692D02*
X141598Y91447D01*
X140216Y89053D01*
X139500Y86382D01*
Y83618D01*
X140216Y80947D01*
X141598Y78553D01*
X141692Y78459D01*
X148232Y85000D01*
X141692Y91541D01*
D02*
G37*
G36*
X150000Y83232D02*
X143459Y76691D01*
X143553Y76598D01*
X144382Y76119D01*
Y53495D01*
X143895Y53293D01*
X141438Y51651D01*
X141277Y51491D01*
X151000Y41768D01*
X160723Y51491D01*
X160562Y51651D01*
X158105Y53293D01*
X156617Y53909D01*
Y76615D01*
X150000Y83232D01*
D02*
G37*
%LPD*%
D14*
X675500Y438400D02*
G03*
X676385Y431258I29250J0D01*
G01*
X684216Y603591D02*
G03*
X684236Y603611I-5637J5677D01*
G01*
X684216Y603591D02*
G03*
X675500Y582760I20534J-20831D01*
G01*
X678579Y609267D02*
G03*
X676852Y607444I26171J-26507D01*
G01*
X390000Y258000D02*
X462000D01*
X584000Y380000D01*
Y621000D01*
X350000Y855000D02*
X584000Y621000D01*
X700000Y515000D02*
X704210Y519210D01*
Y527803D02*
X704750Y528343D01*
X704210Y519210D02*
Y527803D01*
X704750Y528343D02*
Y582760D01*
X765000Y643010D01*
X700000Y515000D02*
X750000D01*
X427600Y25000D02*
X447600Y45000D01*
X255000Y25000D02*
X427600D01*
X478400D01*
X73000Y455212D02*
X228365Y455212D01*
X67243Y605212D02*
X73000D01*
X73106Y605106D01*
X139894D01*
X48788Y552788D02*
X71788D01*
X73000Y554000D02*
X196144D01*
X201442Y559298D02*
X204487D01*
X71788Y552788D02*
X73000Y554000D01*
X196144D02*
X201442Y559298D01*
X37000Y541000D02*
X48788Y552788D01*
X37000Y127837D02*
Y541000D01*
X204487Y559298D02*
X204612Y559174D01*
X37000Y127837D02*
X143337Y21500D01*
X139500Y504500D02*
X140000Y505000D01*
X73000Y504000D02*
X73500Y504500D01*
X139500D01*
X130753Y404000D02*
X136753Y410000D01*
X140000D01*
X73000Y404000D02*
X130753D01*
X361186Y220985D02*
Y223814D01*
Y220985D02*
X370000Y212171D01*
Y210000D02*
Y212171D01*
X355000Y190000D02*
X370000D01*
X340000Y205000D02*
X355000Y190000D01*
X350000Y235000D02*
X361186Y223814D01*
X194000Y339000D02*
X195000Y340000D01*
X219548D01*
X223600Y335948D01*
X235852D01*
X183000Y40001D02*
X183001Y40001D01*
X183000Y40001D02*
Y86000D01*
X183000Y86000D02*
X183000Y86000D01*
X690287Y786000D02*
X706550Y769737D01*
X663000Y786000D02*
X690287D01*
X706550Y761660D02*
X718950Y749260D01*
X706550Y761660D02*
Y769737D01*
X678126Y421874D02*
X734950Y365050D01*
X675500Y438400D02*
Y582760D01*
X676385Y431258D02*
X677093Y422908D01*
X678126Y421874D01*
X734950Y343300D02*
Y365050D01*
X645000Y586166D02*
Y760000D01*
Y586166D02*
X651000Y580165D01*
Y580165D02*
X676852Y607444D01*
X684236Y603611D02*
X734950Y654326D01*
X678579Y609267D02*
X678615Y609303D01*
X734950Y654326D02*
Y705560D01*
X716531Y649311D02*
X718950Y666160D01*
X651000Y409201D02*
Y580165D01*
X678615Y609303D02*
X716531Y649311D01*
X645000Y240000D02*
Y401102D01*
X651000Y407102D01*
Y409201D01*
Y407102D02*
X689252Y368850D01*
X667296Y412704D02*
X672296D01*
X706550Y367400D02*
Y378450D01*
X665000Y415000D02*
X667296Y412704D01*
X672296D02*
X706550Y378450D01*
Y367400D02*
X718950Y355000D01*
X689775Y314225D02*
X690550Y313450D01*
X660775Y314225D02*
X689775D01*
X660000Y315000D02*
X660775Y314225D01*
X660000Y340000D02*
X660575Y340575D01*
X689975D01*
X645000Y240000D02*
X705000D01*
X718950Y253950D01*
Y271900D01*
X689252Y368850D02*
X690550D01*
X645000Y760000D02*
X646555Y761555D01*
X688995D01*
X690550Y763110D01*
X660000Y710000D02*
X661145Y708855D01*
X689405D01*
X660000Y735000D02*
X660205Y735205D01*
X690345D01*
X689405Y708855D02*
X690550Y707710D01*
X690345Y735205D02*
X690550Y735410D01*
X734950Y737560D02*
Y755887D01*
X718950Y721560D02*
X734950Y737560D01*
X718950Y721560D02*
X734950Y705560D01*
X432690Y890550D02*
X433845Y889395D01*
Y861155D02*
Y889395D01*
Y861155D02*
X435000Y860000D01*
X417304Y332296D02*
X427704D01*
X430000Y330000D01*
X390000Y359600D02*
X417304Y332296D01*
X765000Y643010D02*
Y772410D01*
X700000Y515000D02*
X704210Y510790D01*
Y502197D02*
Y510790D01*
Y502197D02*
X704750Y501657D01*
Y438400D02*
Y501657D01*
Y438400D02*
X760000Y383150D01*
Y243750D02*
Y383150D01*
X718950Y327300D02*
X734950Y343300D01*
X704750Y188500D02*
X760000Y243750D01*
X625200Y45200D02*
Y74800D01*
X625000Y75000D02*
X625200Y74800D01*
Y45200D02*
X625400Y45000D01*
X150500Y40500D02*
X151000Y40000D01*
X150500Y40500D02*
Y84500D01*
X150000Y85000D02*
X150500Y84500D01*
X235852Y335948D02*
X237600Y334200D01*
X204612Y555212D02*
X237600Y588200D01*
X368886Y680000D02*
X425000D01*
X237600Y588200D02*
X277086D01*
X368886Y680000D01*
X237600Y537400D02*
X327800Y627600D01*
X512400D01*
X390000Y562800D02*
X391400Y561400D01*
X468600D01*
X470000Y560000D01*
X510624Y855000D02*
X575000D01*
X431240Y906550D02*
X459074D01*
X418840Y918950D02*
X431240Y906550D01*
X459074D02*
X510624Y855000D01*
X524600Y830000D02*
X660837D01*
X734950Y755887D01*
X389200Y284200D02*
X390000Y283400D01*
X365800Y284200D02*
X389200D01*
X365000Y285000D02*
X365800Y284200D01*
X340000Y205000D02*
Y411200D01*
X350000Y235000D02*
Y395800D01*
X340000Y411200D02*
X390000Y461200D01*
X313157Y203157D02*
Y411043D01*
X324814Y202814D02*
X389627Y138000D01*
X324814Y202814D02*
Y424786D01*
X305157Y199843D02*
X425000Y80000D01*
X313157Y203157D02*
X386314Y130000D01*
X305157Y199843D02*
Y317443D01*
X350000Y395800D02*
X390000Y435800D01*
X423600Y46400D02*
Y78600D01*
X389627Y138000D02*
X456200D01*
X386314Y130000D02*
X438800D01*
X423600Y78600D02*
X425000Y80000D01*
X438800Y130000D02*
X523800Y45000D01*
X456200Y138000D02*
X549200Y45000D01*
X204612Y555212D02*
Y559174D01*
X512400Y627600D02*
X555000Y585000D01*
X237600Y486600D02*
X313157Y411043D01*
X237600Y512000D02*
X324814Y424786D01*
X237600Y385000D02*
X305157Y317443D01*
X689975Y340575D02*
X690550Y341150D01*
X509600Y815000D02*
X524600Y830000D01*
X499838Y803549D02*
X509600Y813310D01*
Y815000D01*
X499838Y791072D02*
Y803549D01*
X530000Y795877D02*
X534123Y800000D01*
X530000Y780000D02*
Y795877D01*
X534123Y814123D02*
X535000Y815000D01*
X534123Y800000D02*
Y814123D01*
X499838Y791072D02*
X499919Y790991D01*
Y740081D02*
Y790991D01*
Y740081D02*
X500000Y740000D01*
X390000Y385000D02*
X390278Y385278D01*
X432926D02*
X433204Y385555D01*
X390000Y410400D02*
X390047Y410353D01*
X433226D02*
X433273Y410306D01*
X390047Y410353D02*
X433226D01*
X390278Y385278D02*
X432926D01*
X234163Y25000D02*
X255000D01*
Y40000D01*
X196500Y21500D02*
X215000Y40000D01*
X143337Y21500D02*
X196500D01*
X704750Y832660D02*
X765000Y772410D01*
X700000Y125000D02*
X750000D01*
X702375Y127375D02*
Y186125D01*
X700000Y125000D02*
X702375Y127375D01*
Y186125D02*
X704750Y188500D01*
X478400Y25000D02*
X498400Y45000D01*
X219163Y40000D02*
X234163Y25000D01*
X215000Y40000D02*
X219163D01*
X205200Y410200D02*
X237400D01*
X237600Y410400D01*
X205000Y410000D02*
X205200Y410200D01*
X180400Y435400D02*
X237200D01*
X180000Y435000D02*
X180400Y435400D01*
X237200D02*
X237600Y435800D01*
X228365Y455212D02*
X234353Y461200D01*
X237600D01*
X422200Y45000D02*
X423600Y46400D01*
X376145Y889405D02*
X377290Y890550D01*
X376145Y856145D02*
Y889405D01*
X375000Y855000D02*
X376145Y856145D01*
X349590Y890550D02*
X349795Y890345D01*
Y855205D02*
Y890345D01*
Y855205D02*
X350000Y855000D01*
X139894Y605106D02*
X140000Y605000D01*
D15*
X73000Y454000D02*
D03*
Y504000D02*
D03*
Y404000D02*
D03*
Y604000D02*
D03*
Y554000D02*
D03*
D16*
X690550Y680010D02*
D03*
Y707710D02*
D03*
Y735410D02*
D03*
Y763110D02*
D03*
X718950Y666160D02*
D03*
Y693860D02*
D03*
Y749260D02*
D03*
Y721560D02*
D03*
X690550Y652310D02*
D03*
Y285750D02*
D03*
Y313450D02*
D03*
Y341150D02*
D03*
Y368850D02*
D03*
X718950Y271900D02*
D03*
Y299600D02*
D03*
Y355000D02*
D03*
Y327300D02*
D03*
X690550Y258050D02*
D03*
X432690Y890550D02*
D03*
X363440Y918950D02*
D03*
X335740D02*
D03*
X391140D02*
D03*
X418840D02*
D03*
X321890Y890550D02*
D03*
X349590D02*
D03*
X377290D02*
D03*
X404990D02*
D03*
X498400Y45000D02*
D03*
X574600D02*
D03*
X600000Y45000D02*
D03*
X625400Y45000D02*
D03*
X523800D02*
D03*
X549200D02*
D03*
X422200D02*
D03*
X447600D02*
D03*
X473000D02*
D03*
D17*
X704750Y832660D02*
D03*
Y582760D02*
D03*
Y438400D02*
D03*
Y188500D02*
D03*
X502240Y904750D02*
D03*
X252340D02*
D03*
D18*
X390000Y258000D02*
D03*
Y283400D02*
D03*
Y308800D02*
D03*
Y334200D02*
D03*
Y359600D02*
D03*
Y385000D02*
D03*
Y410400D02*
D03*
Y435800D02*
D03*
Y461200D02*
D03*
Y486600D02*
D03*
Y512000D02*
D03*
Y537400D02*
D03*
Y562800D02*
D03*
Y588200D02*
D03*
Y613600D02*
D03*
X237600D02*
D03*
Y588200D02*
D03*
Y562800D02*
D03*
Y537400D02*
D03*
Y512000D02*
D03*
Y486600D02*
D03*
Y461200D02*
D03*
Y435800D02*
D03*
Y410400D02*
D03*
Y385000D02*
D03*
Y359600D02*
D03*
Y334200D02*
D03*
Y308800D02*
D03*
Y283400D02*
D03*
Y258000D02*
D03*
X370000Y210000D02*
D03*
Y190000D02*
D03*
X194000Y339000D02*
D03*
X183000Y86000D02*
D03*
X663000Y786000D02*
D03*
X665000Y415000D02*
D03*
X660000Y315000D02*
D03*
Y340000D02*
D03*
X645000Y240000D02*
D03*
Y760000D02*
D03*
X660000Y735000D02*
D03*
Y710000D02*
D03*
X435000Y860000D02*
D03*
X430000Y330000D02*
D03*
X625000Y75000D02*
D03*
X150000Y85000D02*
D03*
X140000Y505000D02*
D03*
X425000Y680000D02*
D03*
X470000Y560000D02*
D03*
X575000Y855000D02*
D03*
X365000Y285000D02*
D03*
X425000Y80000D02*
D03*
X204487Y559298D02*
D03*
X555000Y585000D02*
D03*
X530000Y780000D02*
D03*
X500000Y740000D02*
D03*
X433273Y410306D02*
D03*
X433204Y385555D02*
D03*
X255000Y40000D02*
D03*
X180000Y435000D02*
D03*
X205000Y410000D02*
D03*
X375000Y855000D02*
D03*
X350000D02*
D03*
X140000Y410000D02*
D03*
Y605000D02*
D03*
D19*
X700000Y125000D02*
D03*
X750000D02*
D03*
X700000Y515000D02*
D03*
X750000D02*
D03*
D20*
X509600Y815000D02*
D03*
X535000D02*
D03*
D21*
X215000Y40000D02*
D03*
X151000D02*
D03*
X183001Y40001D02*
D03*
D22*
X290000Y40000D02*
D03*
D23*
X350000Y810000D02*
D03*
X350000Y830000D02*
D03*
M02*
