M48
;Layer_Color=9474304
;FILE_FORMAT=4:4
METRIC,LZ
;TYPE=PLATED
T01F00S00C0.8000
T02F00S00C0.9000
T03F00S00C1.0000
T04F00S00C1.1000
T05F00S00C1.4000
T06F00S00C1.5000
T07F00S00C3.1500
T08F00S00C3.2000
;TYPE=NON_PLATED
T09F00S00C0.8000
%
T01
X0035Y0081
X0035Y0083
T02
X0015Y00085
X00183Y00086
X00255Y0004
X00425Y0008
X00625Y00075
X00645Y0024
X0066Y00315
Y0034
X00665Y00415
X00433273Y00410306
X00433204Y00385555
X0039Y00385
Y003596
Y003342
Y003088
Y002834
Y00258
X00365Y00285
X0037Y0021
Y0019
X0043Y0033
X0039Y004104
Y004358
Y004612
Y004866
Y00512
Y005374
X002376
Y00512
Y004866
Y004612
Y004358
Y004104
Y00385
Y003596
Y003342
Y003088
Y002834
Y00258
X00194Y00339
X00205Y0041
X0018Y00435
X0014Y0041
Y00505
Y00605
X002376Y006136
Y005882
Y005628
X00204487Y00559298
X0039Y005628
Y005882
Y006136
X00425Y0068
X005Y0074
X0053Y0078
X00435Y0086
X00375Y00855
X0035
X0047Y0056
X00555Y00585
X0066Y0071
Y00735
X00645Y0076
X00663Y00786
X00575Y00855
T03
X004222Y00045
X004476
X00473
X004984
X005238
X005492
X005746
X006Y00045
X006254Y00045
X00535Y00815
X005096
T04
X00151Y0004
X00183001Y00040001
X00215Y0004
X0069055Y0025805
Y0028575
Y0031345
Y0034115
Y0036885
X0071895Y00355
Y003273
Y002996
Y002719
X0043269Y0089055
X0040499
X0037729
X0034959
X0032189
X0033574Y0091895
X0036344
X0039114
X0041884
X0069055Y0076311
Y0073541
Y0070771
Y0068001
Y0065231
X0071895Y0066616
Y0069386
Y0072156
Y0074926
T05
X007Y00125
X0075
Y00515
X007
T06
X00073Y00404
Y00454
Y00504
Y00554
Y00604
T07
X0070475Y001885
Y004384
X0050224Y0090475
X0025234
X0070475Y0083266
Y0058276
T08
X0004Y0004
X0076
Y0096
X0004
T09
X0029Y0004
M30
